<svg width="165" height="107" viewBox="0 0 165 107" fill="none" xmlns="http://www.w3.org/2000/svg">
<path d="M164.077 82.9228C163.193 81.6237 162.003 80.5585 160.613 79.8193C160.989 79.2697 161.283 78.6694 161.489 78.0367C163.086 73.0865 159.132 70.5345 156.234 68.6749L155.602 68.2774C152.069 66.4391 148.431 64.8075 144.707 63.3913C145.772 62.3666 146.45 61.0079 146.626 59.5439C146.717 58.4268 146.568 57.3032 146.189 56.2481C147.497 55.671 148.649 54.7917 149.55 53.6832C150.216 52.8222 150.695 51.8326 150.957 50.7773C151.218 49.7219 151.257 48.6239 151.07 47.5531C150.962 46.7467 150.69 45.9709 150.269 45.2738C149.847 44.5767 149.288 43.9731 148.623 43.5005C147.325 42.6086 145.825 42.0533 144.256 41.8847C144.411 41.2426 144.468 40.5812 144.424 39.9225C144.089 34.7927 139.465 33.8053 136.078 33.1384L135.357 32.9845C132.781 32.4715 119.439 32.3817 115.073 32.4331L116.001 31.4969C119.954 27.4828 121.615 22.353 120.34 17.8644C120.098 16.6627 119.545 15.5445 118.737 14.6203C117.928 13.6961 116.892 12.9975 115.73 12.5936C111.441 11.5291 107.564 15.4791 105.001 18.0825C104.512 18.5826 103.842 19.2623 103.597 19.4419C103.018 19.7881 101.525 20.7243 98.7163 22.6351C93.9258 25.8028 86.8293 30.5094 82.3088 33.241C78.5223 33.241 74.311 33.1256 71.9284 33.0871L70.0351 32.6125C73.345 29.15 78.3549 23.4302 81.1754 17.9286C83.7512 12.8885 83.7512 7.54077 81.1754 3.61649C80.5755 2.54752 79.7068 1.65216 78.6548 1.01816C77.6026 0.384164 76.4032 0.0333111 75.1738 0C71.1041 0.256489 67.8844 4.5655 64.948 8.97712C64.5744 9.5414 64.1108 10.2596 63.9949 10.375C63.6214 10.734 61.7926 12.0294 60.1312 13.1707C55.5592 16.4153 48.6818 21.3271 44.9985 25.495C43.775 26.8672 39.2802 31.7534 35.3135 36.0752C32.0938 39.5763 29.3119 42.6028 28.6808 43.3081C28.0498 44.0135 26.8134 45.296 25.4611 46.6681C23.9156 48.2584 22.3186 49.8999 21.314 51.0156C19.5883 52.08 10.1995 54.1191 2.33052 55.4273C1.98363 55.4673 1.64855 55.5772 1.34563 55.7502C1.04272 55.9233 0.778295 56.1557 0.568438 56.4337C0.358582 56.7116 0.207672 57.0292 0.124883 57.367C0.0420928 57.7048 0.0291512 58.0559 0.0868437 58.3988C0.144537 58.7418 0.27166 59.0695 0.460489 59.362C0.649312 59.6545 0.895906 59.9057 1.18526 60.1004C1.47462 60.295 1.80071 60.4291 2.14372 60.4944C2.48672 60.5596 2.83947 60.5548 3.18052 60.4801C16.0595 58.3384 23.4649 56.3378 25.0747 54.5295C25.9891 53.5036 27.6506 51.7723 29.1702 50.2462C30.69 48.72 31.8748 47.4761 32.5574 46.6938C33.24 45.9115 36.0604 42.8465 39.1257 39.5378C43.1053 35.2031 47.6257 30.2914 48.875 28.8807C52.172 25.1615 58.7918 20.455 63.1707 17.3386C64.8153 16.2888 66.3665 15.1003 67.8071 13.7863C68.318 13.1564 68.791 12.4969 69.2237 11.8113C70.3185 10.1826 73.6155 5.23238 75.4185 5.11695C76.2302 5.50998 76.8644 6.19181 77.1958 7.0278C77.7625 8.14353 78.8443 11.2214 76.6034 15.5945C73.4094 21.8272 66.7253 28.7267 64.2396 31.1891C59.7449 30.2272 56.7698 30.4196 55.4047 31.8174C54.9604 32.2665 54.6976 32.8627 54.6668 33.4923C54.6358 34.122 54.8388 34.7408 55.237 35.2308C55.6351 35.7209 56.2006 36.0478 56.8254 36.1492C57.4502 36.2505 58.0907 36.1192 58.6244 35.7802C58.9721 35.7802 60.5176 35.5109 64.3942 36.4856L70.9496 38.1271C71.1385 38.1779 71.3334 38.2037 71.5291 38.204C73.1776 38.204 87.705 38.5247 90.3839 38.3451C91.8002 38.2554 98.3561 38.0758 104.139 37.909L108.491 37.7808H108.697C108.835 37.7935 108.973 37.7935 109.11 37.7808L114.146 37.6141C116.296 37.473 132.408 37.6141 134.314 38.0373L135.074 38.1912C138.718 38.9222 139.221 39.2684 139.285 40.2688C139.294 40.61 139.216 40.9478 139.062 41.2522C138.907 41.5567 138.678 41.818 138.397 42.0129L86.4687 48.0019C85.7856 48.041 85.1459 48.3487 84.6907 48.8574C84.2354 49.3661 84.0017 50.034 84.041 50.7143C84.0802 51.3945 84.3893 52.0314 84.9001 52.4847C85.411 52.9381 86.0817 53.1708 86.7649 53.1317H87.0611L139.607 47.0144H139.723C141.011 46.8092 144.308 46.681 145.621 47.6428C145.733 47.7185 145.826 47.8173 145.895 47.9325C145.964 48.0476 146.007 48.1764 146.021 48.3097C146.112 48.6871 146.12 49.0795 146.044 49.4603C145.969 49.841 145.812 50.2009 145.583 50.5155C144.555 51.4835 143.231 52.0797 141.822 52.2083H141.59L88.2975 61.5445C87.6143 61.604 86.9829 61.9314 86.5421 62.4544C86.1014 62.9776 85.8872 63.6536 85.9471 64.3338C86.0069 65.0141 86.3355 65.6428 86.8609 66.0817C87.3862 66.5206 88.0651 66.7338 88.7483 66.6742H89.199L141.127 57.5818C141.412 58.0611 141.537 58.6174 141.488 59.172C141.41 59.5311 140.2 61.3008 135.898 62.75C131.39 64.2761 123.019 66.1998 122.672 66.3024L84.3565 74.5357C84.0182 74.5711 83.6903 74.6724 83.3914 74.834C83.0925 74.9955 82.8285 75.2141 82.6143 75.4774C82.4003 75.7405 82.2404 76.0431 82.1438 76.3678C82.0471 76.6925 82.0156 77.0331 82.0512 77.3699C82.0867 77.7067 82.1885 78.0332 82.3508 78.3309C82.513 78.6285 82.7326 78.8915 82.9969 79.1047C83.2611 79.3178 83.565 79.477 83.8911 79.5733C84.2172 79.6695 84.5592 79.7009 84.8975 79.6654C85.0816 79.6839 85.2671 79.6839 85.4512 79.6654L123.457 71.4963C123.665 71.5118 123.862 71.598 124.014 71.7404C124.166 71.8827 124.265 72.0726 124.294 72.2786C124.526 73.2276 122.697 74.4074 120.778 74.9845C119.812 75.2795 118.009 75.9592 115.73 76.8184C113.656 77.6008 110.99 78.601 108.415 79.5116C108.236 79.5521 108.064 79.6123 107.899 79.6911C105.466 80.6349 102.947 81.3435 100.378 81.8072C97.351 81.9867 92.9078 83.6667 87.7695 85.6545C85.1035 86.6677 82.3474 87.7064 79.7588 88.54C75.8137 89.693 71.8007 90.601 67.7427 91.2585H67.4336C59.5002 92.6308 50.691 93.5926 46.3508 93.195C38.2113 92.4513 33.549 93.195 21.4557 97.0421C8.29347 101.044 2.45931 101.865 2.40779 101.865C1.72464 101.911 1.0878 102.225 0.637359 102.738C0.186907 103.252 -0.0402461 103.922 0.00586632 104.603C0.0519778 105.283 0.367579 105.917 0.883241 106.366C1.3989 106.814 2.07238 107.04 2.75553 106.994H3.10325C3.34795 106.994 9.34951 106.11 23.0399 101.749C35.0816 97.9018 38.9324 97.4913 45.8742 98.1457C50.6523 98.5819 59.5774 97.6072 67.6139 96.2478C72.5745 98.3491 77.7596 99.8806 83.0686 100.813C85.5414 101.338 87.8725 101.839 90.1392 102.442C99.0516 104.814 125.904 106.944 126.201 106.968C126.496 106.994 127.076 106.968 127.488 106.968C132.215 106.968 135.486 104.802 135.963 101.249C136.009 100.939 136.031 100.626 136.026 100.313C138.886 100.685 142.337 101.057 144.901 101.185C150.593 101.442 154.869 99.9026 156.26 97.0679C156.764 96.0628 157.041 94.9602 157.071 93.8365C158.498 93.7904 159.894 93.403 161.141 92.7081C162.078 92.1549 162.888 91.4122 163.521 90.5292C164.153 89.6458 164.592 88.6407 164.811 87.5782C165.014 86.7934 165.054 85.9755 164.928 85.1749C164.802 84.3743 164.512 83.6079 164.077 82.9228ZM103.972 32.7793L92.0838 33.1384C95.4065 30.9838 98.8456 28.7011 101.549 26.9057C103.816 25.4053 105.787 24.1099 106.263 23.8278C107.152 23.2152 107.96 22.496 108.672 21.6861C109.96 20.4037 113.012 17.3002 114.429 17.5695C115.065 18.1954 115.454 19.0285 115.524 19.9163C115.717 21.1988 115.807 24.4049 112.33 27.8931C109.87 30.3683 108.466 31.7405 107.745 32.5356C107.701 32.5858 107.654 32.633 107.603 32.6767L103.972 32.7793ZM137.56 67.5207C138.23 67.2899 138.848 67.0462 139.465 66.7897C142.595 67.9696 151.224 71.5475 152.782 72.5607L153.439 72.984C156.556 74.9974 156.891 75.5488 156.582 76.4593C156.464 76.7786 156.268 77.0634 156.013 77.2875C155.756 77.5115 155.446 77.6678 155.114 77.7418L129.355 70.9192C129.35 70.8939 129.35 70.8676 129.355 70.8423C129.278 70.5378 129.184 70.2381 129.072 69.9445C131.802 69.252 135.138 68.3415 137.56 67.5207ZM126.638 101.865C119.748 101.326 98.5233 99.2998 91.53 97.5042C89.1346 96.8626 86.6361 96.3242 84.2148 95.8116C81.7936 95.298 79.7072 94.8369 77.4921 94.2727C78.9731 93.9138 80.2868 93.5539 81.3557 93.2078C83.03 92.6694 84.73 92.0537 86.4429 91.4251L130.412 99.5943C130.606 99.6799 130.764 99.8309 130.856 100.021C130.949 100.212 130.969 100.429 130.913 100.633C130.772 101.569 128.622 101.98 126.638 101.865ZM151.688 94.8369C151.482 95.1443 149.653 96.3242 145.171 96.119C140.445 95.9009 132.073 94.6574 131.571 94.5801L95.8832 87.9629C97.4379 87.3827 99.0535 86.9824 100.7 86.7702C103.613 86.3366 106.468 85.5795 109.213 84.5131L151.932 93.2336C152.018 93.7683 151.933 94.316 151.688 94.7982V94.8369ZM159.84 86.4367C159.78 86.8265 159.633 87.198 159.41 87.5241C159.187 87.8502 158.894 88.1228 158.552 88.3219C157.24 88.8464 155.789 88.9185 154.431 88.5272H154.354H154.212L118.331 81.2044C120.07 80.5375 121.525 79.9989 122.195 79.7937C124.511 79.1862 126.578 77.8723 128.106 76.0361L154.251 82.9613H154.354C155.641 83.2563 158.745 84.3336 159.608 85.7186C159.701 85.8045 159.774 85.9103 159.821 86.0279C159.867 86.1455 159.888 86.2721 159.878 86.3983L159.84 86.4367Z" fill="black"/>
</svg>
