<svg width="123" height="124" viewBox="0 0 123 124" fill="none" xmlns="http://www.w3.org/2000/svg">
<g clip-path="url(#clip0_113_259)">
<path d="M60.6145 71.1973C59.3777 70.6227 57.8978 71.1351 57.3088 72.3427L56.8974 73.1868C56.3086 74.3944 56.8339 75.8395 58.0704 76.4146C58.4148 76.5748 58.7775 76.6506 59.135 76.6506C60.062 76.6506 60.9512 76.1411 61.3762 75.2692L61.7875 74.4252C62.3765 73.2173 61.851 71.7722 60.6145 71.1973Z" fill="black"/>
<path d="M32.8169 57.1616C31.8483 56.2158 30.2778 56.2158 29.3092 57.1616C27.2529 59.1696 23.9067 59.1696 21.8502 57.1616C20.8816 56.2158 19.3111 56.2158 18.3425 57.1616C17.3739 58.1073 17.3739 59.6408 18.3425 60.5866C20.3377 62.5346 22.9587 63.5089 25.5797 63.5089C28.2007 63.5089 30.8214 62.5348 32.8166 60.5866C33.7852 59.6411 33.7852 58.1076 32.8169 57.1616Z" fill="black"/>
<path d="M116.425 6.43428C107.687 -2.09805 93.4871 -2.12275 84.7139 6.35482C81.9753 5.02725 79.0678 3.88839 76.0022 2.95085C65.9453 -0.125096 57.7176 -0.0109926 57.0041 0.00426966C43.5491 0.0129909 31.8128 5.52557 26.3687 14.3954C25.6501 15.5659 25.0515 16.7792 24.5711 18.0275C22.007 20.4116 10.4354 32.0887 10.4354 48.646C10.4354 59.6741 5.0029 65.4318 1.76489 67.8825C0.554885 68.7983 -0.100359 70.2363 0.0125288 71.7291C0.125416 73.2226 0.99006 74.5516 2.32561 75.2845C3.54578 75.9541 4.91805 76.5968 6.24491 77.2184C7.4182 77.7681 9.08546 78.5491 9.89849 79.0574V83.371C9.89849 83.9612 9.78313 84.5375 9.55562 85.0848L8.94056 86.563C8.09825 88.5868 8.40838 90.904 9.74517 92.6478V93.1791C9.74517 94.7506 10.4538 96.2051 11.634 97.1918V100.035C11.634 106.129 16.7112 111.087 22.9523 111.087H30.2758C31.6456 111.087 32.7561 110.003 32.7561 108.665C32.7561 107.328 31.6456 106.243 30.2758 106.243H22.9523C19.4468 106.243 16.5943 103.458 16.5943 100.035V95.8568C16.5943 94.8863 16.0011 94.01 15.0871 93.6292L14.9799 93.5846C14.8132 93.5151 14.7055 93.3559 14.7055 93.1791V91.812C14.7055 91.2689 14.5184 90.7412 14.1746 90.3144L13.7369 89.7712C13.4208 89.3793 13.3442 88.8482 13.5365 88.386L14.1515 86.9075C14.6209 85.7788 14.8591 84.5891 14.8591 83.371V78.2151C14.8591 75.8814 12.4244 74.7408 8.39077 72.8512C7.33161 72.3551 6.24243 71.8446 5.27904 71.3415C9.26806 68.1626 15.3962 61.2282 15.3962 48.6458C15.3962 39.5412 19.5468 31.9547 23.1475 27.0848C23.3443 31.3047 24.6515 35.7177 27.0708 40.1362C33.4364 51.7615 44.5217 56.6342 53.4289 60.5491C61.9037 64.2741 66.7003 66.6189 66.7387 71.4931C66.7668 75.0725 65.9237 77.7061 64.2329 79.3202C62.2808 81.1842 59.6896 81.1364 59.6739 81.1362C58.8415 81.0793 58.0613 81.4342 57.5544 82.0805C57.0473 82.7269 56.9319 83.5803 57.2051 84.3495C57.2778 84.5545 59.0348 89.419 63.0573 94.1593C68.0849 100.084 74.4312 103.21 81.5074 103.28L88.172 122.359C88.5235 123.366 89.4872 124 90.519 124C90.7845 124 91.0547 123.958 91.3199 123.869C92.6165 123.438 93.309 122.061 92.8666 120.796L86.3032 102.006C98.6769 95.5312 107.377 85.4874 111.524 72.8381C114.83 62.7551 114.988 51.4412 112.195 40.7256C113.725 39.8172 115.144 38.7326 116.425 37.4813C125.192 28.9219 125.192 14.9942 116.425 6.43428ZM106.8 71.3621C102.908 83.2339 94.5515 92.5809 82.6179 98.4208C76.5837 98.6854 71.3207 96.2507 66.9697 91.1775C65.2154 89.1324 63.9456 87.0272 63.1142 85.4336C64.5293 85.0014 66.1547 84.2313 67.618 82.8628C70.3652 80.2934 71.7385 76.4558 71.6993 71.4565C71.6348 63.2396 63.7806 59.7877 55.4653 56.1328C46.8164 52.3312 37.0136 48.0227 31.4454 37.853C27.9863 31.5351 27.172 25.5278 29.0157 20.2609C29.0234 20.2408 29.0306 20.2205 29.0378 20.2003C29.4419 19.0593 29.9692 17.9522 30.6241 16.885C35.1811 9.46008 45.302 4.84749 57.0368 4.84749C57.0607 4.84749 57.0842 4.84725 57.1083 4.84652C57.1855 4.8441 65.0027 4.66168 74.5198 7.57241C87.1848 11.4464 96.5142 18.6644 102.249 29.0263C109.496 42.123 111.198 57.9492 106.8 71.3621ZM110.712 35.8848C109.606 32.7362 108.24 29.6651 106.612 26.7239C102.541 19.367 96.6584 13.3265 89.281 8.84063C96.1584 3.2108 106.454 3.54753 112.918 9.85908C119.75 16.5304 119.75 27.3855 112.918 34.0568C112.23 34.7285 111.493 35.3388 110.712 35.8848Z" fill="black"/>
<path d="M63.6272 113.452L55.8564 100.309L55.5936 91.3351C55.3738 83.8198 49.4205 77.6928 41.7459 77.0831C36.1025 76.6339 30.6842 79.6898 28.2605 84.6859L28.1379 84.9383C24.9249 91.5604 27.243 99.5714 33.5297 103.573L41.2654 108.497L49.7163 122.789C50.1755 123.566 51.0092 124 51.8664 124C52.2869 124 52.7136 123.895 53.1041 123.675C54.2903 123.006 54.697 121.525 54.012 120.367L46.5046 107.67L52.4869 104.297L59.3311 115.872C60.0156 117.031 61.5325 117.428 62.7192 116.759C63.9059 116.091 64.3123 114.61 63.6272 113.452ZM43.1959 103.944L36.239 99.5157C32.0207 96.8307 30.4654 91.4553 32.6211 87.0118L32.7437 86.7594C34.1892 83.7803 37.3049 81.8834 40.6456 81.8834C40.8776 81.8834 41.1105 81.8926 41.344 81.9113C46.4934 82.3202 50.4879 86.4316 50.6353 91.4739L50.8737 99.6153L43.1959 103.944Z" fill="black"/>
<path d="M66.8521 119.867C66.3942 119.417 65.7588 119.158 65.1113 119.158C64.4613 119.158 63.8286 119.417 63.3705 119.867C62.9124 120.317 62.6491 120.942 62.6491 121.579C62.6491 122.216 62.9126 122.84 63.3705 123.291C63.8283 123.741 64.4613 124 65.1113 124C65.7588 124 66.394 123.741 66.8521 123.291C67.3099 122.84 67.5734 122.216 67.5734 121.579C67.5734 120.942 67.3099 120.318 66.8521 119.867Z" fill="black"/>
<path d="M46.6747 14.1932C46.14 12.9641 44.6933 12.393 43.4426 12.9188C39.1003 14.7442 35.9684 17.8212 34.6239 21.5833C33.2767 25.353 33.7826 29.5859 36.0869 33.824C36.5305 34.6399 37.3809 35.1039 38.2604 35.1039C38.6523 35.1039 39.0495 35.0117 39.419 34.8174C40.6181 34.187 41.0706 32.7201 40.4295 31.5406C38.77 28.4883 38.3799 25.6782 39.2697 23.1881C40.1512 20.7219 42.3205 18.6558 45.3785 17.3707C46.6286 16.8457 47.2089 15.423 46.6747 14.1932Z" fill="black"/>
<path d="M52.6803 11.1416L52.5423 11.1419C51.1828 11.1496 50.0866 12.2399 50.0947 13.5773C50.1026 14.9096 51.2035 15.9842 52.5566 15.9842C52.5615 15.9842 52.5665 15.9842 52.5714 15.9842L52.6803 15.9839C54.04 15.9839 55.1424 14.8999 55.1424 13.5628C55.1424 12.2256 54.04 11.1416 52.6803 11.1416Z" fill="black"/>
</g>
<defs>
<clipPath id="clip0_113_259">
<rect width="123" height="124" fill="white"/>
</clipPath>
</defs>
</svg>
