<svg width="151" height="119" viewBox="0 0 151 119" fill="none" xmlns="http://www.w3.org/2000/svg">
<g clip-path="url(#clip0_113_2085)">
<path d="M65.8272 68.4932C66.4368 68.4942 67.0228 68.2553 67.4604 67.8274C80.1314 55.5443 93.722 41.9919 100.696 35.0062C101.989 33.7048 103.524 32.6736 105.213 31.9716C106.902 31.2697 108.712 30.9109 110.539 30.9158C110.54 30.9158 110.542 30.9155 110.544 30.9148C110.546 30.9141 110.548 30.913 110.549 30.9116C110.551 30.9102 110.552 30.9085 110.552 30.9067C110.553 30.9048 110.553 30.9029 110.553 30.9009C110.554 30.904 110.553 30.9071 110.551 30.9098C110.55 30.9124 110.547 30.9145 110.544 30.9158C110.687 30.9251 110.829 30.9429 110.969 30.9693C112.418 31.2567 113.846 31.64 115.245 32.1167C116.041 32.3783 116.801 32.6518 117.385 32.8896C117.68 33.0085 117.937 33.1215 118.128 33.2166C118.211 33.2553 118.291 33.2969 118.353 33.3325C118.385 33.3504 118.406 33.3623 118.417 33.3682C118.423 33.3712 118.426 33.3742 118.429 33.3742L121.233 35.175C121.348 35.2645 121.47 35.3431 121.599 35.4098L147.347 51.9474C147.609 52.1152 147.9 52.2296 148.206 52.2838C148.511 52.3381 148.824 52.3312 149.126 52.2635C149.429 52.1959 149.715 52.0689 149.969 51.8897C150.223 51.7104 150.439 51.4826 150.606 51.2191C150.772 50.9556 150.886 50.6616 150.939 50.3539C150.993 50.0462 150.986 49.7309 150.919 49.4258C150.852 49.1208 150.726 48.8321 150.548 48.5762C150.371 48.3203 150.145 48.1021 149.883 47.9343L124.567 31.6797L120.139 20.5201C120.024 20.2301 119.853 19.9658 119.637 19.7423C119.421 19.5188 119.163 19.3404 118.878 19.2174C118.593 19.0943 118.287 19.0291 117.977 19.0252C117.668 19.0214 117.36 19.0792 117.073 19.1951C116.785 19.3111 116.523 19.4831 116.301 19.7012C116.079 19.9193 115.902 20.1793 115.78 20.4664C115.658 20.7534 115.594 21.0619 115.59 21.3742C115.586 21.6865 115.643 21.9964 115.758 22.2864L118.047 28.0558C117.194 27.7448 116.23 27.4285 115.198 27.1226C114.26 26.8462 113.414 26.6232 112.682 26.4627C111.98 26.2869 111.262 26.1852 110.539 26.1595C105.603 26.1581 100.869 28.1268 97.3696 31.6351C90.4194 38.5971 76.8671 52.1109 64.1936 64.3999C63.7434 64.8372 63.4835 65.4367 63.4708 66.0668C63.4581 66.697 63.6936 67.3065 64.1257 67.762C64.3449 67.9944 64.6088 68.1792 64.9015 68.3049C65.194 68.4307 65.5091 68.4948 65.8272 68.4932Z" fill="black"/>
<path d="M58.9979 75.0718C59.4594 75.0726 59.9109 74.9368 60.2964 74.6812C60.6819 74.4257 60.9846 74.0616 61.1667 73.6342C61.3488 73.2068 61.4025 72.7349 61.321 72.2771C61.2395 71.8192 61.0264 71.3956 60.7082 71.0587C60.4395 70.7726 60.1046 70.5583 59.7334 70.435C59.3623 70.3117 58.9665 70.2833 58.5818 70.3523C58.1971 70.4213 57.8354 70.5856 57.5292 70.8305C57.223 71.0753 56.982 71.3929 56.8277 71.7549C56.6735 72.1169 56.6108 72.5118 56.6454 72.9042C56.68 73.2966 56.8108 73.6742 57.026 74.0031C57.2411 74.332 57.534 74.6018 57.8782 74.7883C58.2224 74.9748 58.6072 75.0723 58.9979 75.0718Z" fill="black"/>
<path d="M150.319 90.7912C142.948 83.0147 136.496 75.9457 131.15 69.7804C126.173 64.0521 119.57 56.1002 116.377 50.7494C115.796 49.7836 114.981 48.9827 114.009 48.4218C112.559 47.5885 110.847 47.3499 109.227 47.7556C107.607 48.1614 106.205 49.1802 105.31 50.6007C103.836 52.9343 100.923 57.5033 97.9505 61.882C96.3346 64.2661 94.8926 66.3113 93.663 67.9671C92.6397 69.3949 91.5268 70.7552 90.331 72.0396C88.429 73.9659 85.3948 76.0943 81.3108 78.3654C77.9756 80.2293 74.2516 82.0337 70.6539 83.7787C68.192 84.9707 65.8684 86.0974 63.6687 87.2359C60.4189 88.9214 58.1811 90.2531 56.4148 91.5552C54.3157 93.1366 52.7643 94.6259 52.0186 96.7514C51.4138 98.5855 50.9597 100.253 50.559 101.725C50.1462 103.229 49.7923 104.528 49.3942 105.586C49.0923 106.476 48.6535 107.313 48.0939 108.065C47.5663 108.737 46.8923 109.277 46.1241 109.644C45.4331 109.947 44.6831 110.089 43.93 110.06H43.8474C41.5563 110.06 38.7314 109.138 37.6227 108.743C34.4389 107.614 31.0231 107.316 27.6943 107.878C27.5126 107.911 27.3347 107.963 27.1636 108.033C24.5432 109.15 21.7261 109.722 18.8811 109.715C16.0362 109.709 13.2218 109.123 10.6065 107.994L7.62833 106.704C6.52707 106.232 5.64198 105.359 5.14846 104.26L19.205 102.236C19.3869 102.21 19.5651 102.162 19.7358 102.093H19.7417C20.2191 101.903 24.5628 100.164 29.611 97.8542C32.6924 96.4482 35.3816 95.1224 37.6079 93.9184C40.6006 92.2894 42.5706 91.0201 43.9978 89.7954C46.4777 87.6521 49.7478 84.6794 53.7197 80.9606C53.9516 80.7494 54.1396 80.4937 54.2726 80.2086C54.4057 79.9236 54.4813 79.6146 54.4949 79.2999C54.5085 78.9851 54.46 78.6707 54.3521 78.375C54.2442 78.0793 54.079 77.8081 53.8663 77.5773C53.6535 77.3465 53.3974 77.1606 53.1128 77.0304C52.8282 76.9002 52.5207 76.8284 52.2083 76.819C51.8959 76.8096 51.5848 76.863 51.293 76.9758C51.0012 77.0887 50.7345 77.259 50.5086 77.4766C46.5868 81.1479 43.3638 84.0789 40.9252 86.1865C39.8725 87.1051 37.8494 88.3952 35.3784 89.727C31.6161 91.7603 27.1017 93.8085 23.9731 95.1699C22.1593 95.9577 20.644 96.5909 19.6912 96.9833C19.0514 97.2478 18.5589 97.447 18.2641 97.5659L2.02577 99.9054C1.46326 99.9856 0.948457 100.268 0.576199 100.701C0.203941 101.133 -0.000690886 101.687 2.81793e-06 102.26C-0.0014312 104.137 0.544483 105.974 1.56991 107.542C2.59533 109.109 4.05506 110.339 5.76769 111.077L8.7459 112.364C11.8994 113.726 15.2905 114.443 18.7213 114.471C22.1522 114.499 25.5543 113.838 28.7293 112.527C31.1943 112.157 33.7117 112.398 36.0628 113.232C37.9969 113.907 40.9134 114.804 43.8975 114.816C45.3943 114.855 46.8795 114.542 48.2351 113.901C49.6191 113.219 50.8348 112.235 51.7939 111.02C53.2214 109.189 53.9317 107.058 54.4834 105.206C54.7072 104.448 54.9198 103.675 55.1439 102.857C55.5417 101.401 55.9519 99.8935 56.4945 98.2556C56.5888 97.9345 56.981 97.3013 57.7768 96.5641C59.0539 95.3483 61.389 93.8233 64.5294 92.1497C66.9533 90.8477 69.7015 89.5159 72.6118 88.1069C74.9974 86.9505 77.4625 85.7555 79.8657 84.5189C84.6691 82.0397 90.065 79.0135 93.6657 75.4047C95.0243 73.9635 96.2843 72.431 97.4371 70.8179C101.486 65.369 106.602 57.4111 109.291 53.1513C109.455 52.8912 109.683 52.6781 109.953 52.5324C110.222 52.3867 110.525 52.3133 110.83 52.3193C111.136 52.3253 111.435 52.4104 111.699 52.5665C111.963 52.7226 112.183 52.9445 112.337 53.2107C115.094 57.8005 120.086 64.2453 127.597 72.9136C132.978 79.1175 139.477 86.2371 146.911 94.079C147.123 94.3104 147.38 94.4969 147.665 94.6275C147.949 94.7581 148.257 94.8302 148.57 94.8397C148.883 94.8492 149.194 94.7958 149.487 94.6827C149.779 94.5696 150.046 94.3991 150.272 94.1809C150.498 93.9628 150.679 93.7015 150.804 93.4122C150.929 93.123 150.995 92.8115 151 92.496C151.004 92.1805 150.946 91.8673 150.829 91.5746C150.713 91.282 150.539 91.0156 150.319 90.7912Z" fill="black"/>
<path d="M96.7179 26.1595C97.3435 26.1595 97.9435 25.9089 98.3859 25.4629C98.8283 25.0169 99.0769 24.412 99.0769 23.7813V19.0251C99.0769 10.2239 104.819 4.75627 114.062 4.75627C116.211 4.75601 118.33 5.26039 120.252 6.22941C122.174 7.19842 123.846 8.60545 125.134 10.3389L146.728 39.364C147.104 39.8686 147.662 40.2022 148.282 40.2914C148.901 40.3806 149.53 40.2181 150.031 39.8397C150.531 39.4612 150.862 38.8979 150.951 38.2735C151.039 37.6491 150.878 37.0149 150.502 36.5103L128.909 7.48517C127.181 5.16102 124.939 3.27459 122.362 1.97536C119.785 0.676134 116.944 -0.000184702 114.062 3.78368e-08C102.277 3.78368e-08 94.3589 7.6457 94.3589 19.0251V23.7813C94.3589 24.412 94.6074 25.0169 95.0498 25.4629C95.4922 25.9089 96.0922 26.1595 96.7179 26.1595Z" fill="black"/>
<path d="M115.59 64.2096C115.59 63.5789 115.341 62.974 114.899 62.528C114.456 62.082 113.856 61.8315 113.231 61.8315C112.605 61.8315 112.005 62.082 111.563 62.528C111.12 62.974 110.872 63.5789 110.872 64.2096V76.1003C110.872 76.4126 110.933 76.7218 111.051 77.0104C111.17 77.2989 111.344 77.5611 111.563 77.7819L111.904 78.1217C116.831 83.037 119.332 86.8102 119.339 89.3363C119.351 89.6579 119.295 89.9784 119.174 90.2764C119.054 90.5743 118.871 90.843 118.64 91.0644C117.434 92.264 116.09 93.3141 114.636 94.1922C112.898 95.2539 111.29 96.5185 109.845 97.9598C108.048 99.7713 106.462 102.191 104.782 104.753C103.19 107.18 101.547 109.688 99.8367 111.412C96.216 115.063 91.8805 114.507 88.953 113.45L93.6683 108.696C93.9077 108.455 94.0926 108.165 94.2106 107.845L101.288 88.7008C101.385 88.435 101.435 88.1537 101.435 87.8702V80.8565C101.435 80.2258 101.186 79.6209 100.744 79.1749C100.302 78.7289 99.7016 78.4784 99.076 78.4784C98.4503 78.4784 97.8503 78.7289 97.4079 79.1749C96.9655 79.6209 96.717 80.2258 96.717 80.8565V87.4428L89.9677 105.701L83.254 112.469C83.0005 112.724 82.8082 113.035 82.6915 113.376C82.5748 113.718 82.537 114.082 82.5808 114.441C82.6246 114.8 82.7489 115.144 82.9443 115.447C83.1397 115.75 83.401 116.004 83.7084 116.19C86.4298 117.836 89.7781 119 93.1986 119C95.0579 119.012 96.9003 118.644 98.6146 117.919C100.329 117.193 101.879 116.124 103.172 114.777C105.219 112.713 106.997 110.001 108.717 107.377C110.262 105.021 111.72 102.796 113.18 101.324C114.386 100.124 115.73 99.0743 117.184 98.1961C118.922 97.1345 120.53 95.87 121.975 94.4288C122.644 93.7631 123.174 92.9678 123.532 92.0909C123.889 91.2139 124.067 90.2732 124.056 89.3251C124.043 84.3063 119.325 78.8791 115.589 75.111L115.59 64.2096Z" fill="black"/>
</g>
<defs>
<clipPath id="clip0_113_2085">
<rect width="151" height="119" fill="white"/>
</clipPath>
</defs>
</svg>
