<svg width="97" height="118" viewBox="0 0 97 118" fill="none" xmlns="http://www.w3.org/2000/svg">
<g clip-path="url(#clip0_113_720)">
<path d="M96.4953 32.0743C95.34 27.1363 92.3237 22.9424 88.002 20.2648L62.2372 4.30132C61.831 3.9865 61.4116 3.68436 60.976 3.39927C54.4113 -0.898077 46.108 -1.13754 39.3055 2.77561L14.4144 17.0926C7.75144 20.9251 2.98512 27.1135 0.993838 34.5176C-0.997448 41.9216 0.0245667 49.6548 3.87135 56.2931L7.79794 63.0689C7.82431 63.1143 7.85369 63.1569 7.88283 63.2V67.3574C7.88283 91.3337 24.1911 112.13 47.5415 117.932C47.7254 117.977 47.9133 118 48.1013 118C48.2878 118 48.4738 117.977 48.6558 117.933L48.6977 117.923C72.0581 112.127 88.3731 91.3284 88.3731 67.3443V55.6148L94.12 46.4084C96.8071 42.1028 97.6508 37.0124 96.4953 32.0743ZM83.7467 67.3445C83.7469 89.0306 69.1163 107.859 48.1027 113.318C27.1165 107.839 12.5085 89.0216 12.5085 67.3577V63.0202L15.5852 61.2505C15.2828 62.4616 15.1198 63.7269 15.1198 65.0297C15.1198 73.6698 22.1753 80.6991 30.8476 80.6991C39.5199 80.6991 46.5755 73.6698 46.5755 65.0297C46.5755 56.3896 39.5199 49.3603 30.8476 49.3603C27.1271 49.3603 23.7062 50.6569 21.0103 52.8166C20.9673 52.8378 20.924 52.8579 20.8819 52.8821L10.6472 58.7692L7.87705 53.9888C4.64792 48.4167 3.79015 41.9251 5.46174 35.7105C7.13356 29.4954 11.1339 24.3011 16.727 21.0839L41.6181 6.76666C46.8968 3.72976 53.3412 3.91575 58.4355 7.25088C62.6464 10.0075 65.0733 14.6492 64.928 19.667C64.7828 24.6848 62.0905 29.1787 57.727 31.689L53.2737 34.2504C53.269 34.253 53.2646 34.2557 53.26 34.2583L46.8438 37.949C45.7376 38.5856 45.3585 39.9947 45.9974 41.0968C46.6363 42.1987 48.0509 42.5769 49.1569 41.9401L54.3681 38.9423L83.7467 57.1451V67.3445ZM19.7459 65.0299C19.7459 58.9308 24.7262 53.9692 30.8479 53.9692C36.9695 53.9692 41.9498 58.931 41.9498 65.0299C41.9498 71.1291 36.9695 76.0907 30.8479 76.0907C24.7262 76.0907 19.7459 71.1291 19.7459 65.0299ZM90.1915 43.9744L84.9089 52.4373L58.9114 36.3293L60.0405 35.6798C65.8045 32.3643 69.3605 26.4281 69.5528 19.8C69.6132 17.7209 69.3386 15.6909 68.7626 13.7711L85.5599 24.1787C92.3145 28.3638 94.3925 37.2442 90.1915 43.9744Z" fill="black"/>
<path d="M41.785 42.8305C41.3547 42.4016 40.7581 42.155 40.1497 42.155C39.5413 42.155 38.9447 42.4016 38.5144 42.8305C38.0844 43.2589 37.8365 43.8533 37.8365 44.4595C37.8365 45.0658 38.0841 45.66 38.5144 46.0886C38.9447 46.5173 39.5413 46.7639 40.1497 46.7639C40.7581 46.7639 41.3547 46.5176 41.785 46.0886C42.215 45.66 42.4627 45.0679 42.4627 44.4595C42.4624 43.8533 42.215 43.2589 41.785 42.8305Z" fill="black"/>
<path d="M61.5688 93.6296C61.4814 92.6026 60.826 91.734 59.8542 91.3615C58.7066 90.9211 57.686 90.1896 56.9029 89.2449C55.6625 87.7494 53.8339 86.8916 51.8865 86.8916C50.5249 86.8916 49.1955 87.3246 48.0981 88.105C47.0009 87.3246 45.6714 86.8916 44.3098 86.8916C42.3625 86.8916 40.5343 87.7494 39.2934 89.2449C38.5104 90.1891 37.4897 90.9209 36.3616 91.3539C36.3551 91.3565 36.3433 91.3606 36.337 91.3632C35.3705 91.734 34.7154 92.6024 34.6273 93.6291C34.5389 94.6612 35.04 95.6324 35.9343 96.1641C36.2787 96.3687 36.8733 96.9961 37.4483 97.6034C39.497 99.7663 42.5915 103.033 48.0837 103.041C48.0865 103.041 48.0893 103.041 48.092 103.041C48.0967 103.042 48.1004 103.042 48.1041 103.041C48.1068 103.041 48.1096 103.041 48.1124 103.041C53.6044 103.033 56.6991 99.7661 58.748 97.6031C59.3229 96.9961 59.9174 96.3687 60.2607 96.1645C61.1557 95.6333 61.6572 94.6621 61.5688 93.6296ZM55.384 94.4406C53.6123 96.3109 51.6046 98.4308 48.0983 98.4331C44.5925 98.4308 42.5845 96.3109 40.8128 94.4406C40.7522 94.377 40.6923 94.3132 40.6321 94.2503C41.4584 93.6605 42.2089 92.9654 42.8594 92.1809C43.2184 91.7483 43.7467 91.5003 44.3098 91.5003C44.8215 91.5003 45.3172 91.7116 45.6705 92.0804L46.4253 92.8679C46.8618 93.3235 47.4661 93.5812 48.0981 93.5812C48.73 93.5812 49.3347 93.3235 49.771 92.8681L50.5259 92.0804C50.8791 91.7116 51.3751 91.5003 51.8868 91.5003C52.4501 91.5003 52.9784 91.7483 53.3372 92.1806C53.9877 92.9649 54.7377 93.6605 55.5647 94.25C55.5048 94.3134 55.4446 94.3768 55.384 94.4406Z" fill="black"/>
<path d="M65.349 49.3605C56.6767 49.3605 49.6211 56.3898 49.6211 65.0299C49.6211 73.67 56.6767 80.6993 65.349 80.6993C74.0213 80.6993 81.0769 73.67 81.0769 65.0299C81.0769 56.3898 74.0213 49.3605 65.349 49.3605ZM65.349 76.0906C59.2271 76.0906 54.247 71.1288 54.247 65.0299C54.247 58.9307 59.2273 53.9692 65.349 53.9692C71.4707 53.9692 76.451 58.931 76.451 65.0299C76.451 71.1291 71.4707 76.0906 65.349 76.0906Z" fill="black"/>
<path d="M65.3491 56.4758C64.072 56.4758 63.0363 57.5076 63.0363 58.78V59.5086C63.0363 60.781 64.072 61.8128 65.3491 61.8128C66.6263 61.8128 67.662 60.781 67.662 59.5086V58.78C67.662 57.5076 66.6265 56.4758 65.3491 56.4758Z" fill="black"/>
<path d="M65.3491 68.2465C64.072 68.2465 63.0363 69.2784 63.0363 70.5508V71.2793C63.0363 72.5517 64.072 73.5835 65.3491 73.5835C66.6263 73.5835 67.662 72.5517 67.662 71.2793V70.5508C67.662 69.2781 66.6265 68.2465 65.3491 68.2465Z" fill="black"/>
<path d="M71.6217 62.7254H70.8904C69.6133 62.7254 68.5776 63.7572 68.5776 65.0297C68.5776 66.3021 69.6133 67.3339 70.8904 67.3339H71.6217C72.8988 67.3339 73.9345 66.3021 73.9345 65.0297C73.9347 63.7575 72.8988 62.7254 71.6217 62.7254Z" fill="black"/>
<path d="M59.8073 62.7254H59.0761C57.7989 62.7254 56.7633 63.7572 56.7633 65.0297C56.7633 66.3021 57.7989 67.3339 59.0761 67.3339H59.8073C61.0845 67.3339 62.1202 66.3021 62.1202 65.0297C62.1204 63.7575 61.0847 62.7254 59.8073 62.7254Z" fill="black"/>
<path d="M30.8479 56.476C29.5707 56.476 28.535 57.5078 28.535 58.7803V59.5088C28.535 60.7812 29.5707 61.813 30.8479 61.813C32.125 61.813 33.1607 60.7812 33.1607 59.5088V58.7803C33.1609 57.5078 32.125 56.476 30.8479 56.476Z" fill="black"/>
<path d="M30.8479 68.2465C29.5707 68.2465 28.535 69.2784 28.535 70.5508V71.2793C28.535 72.5517 29.5707 73.5835 30.8479 73.5835C32.125 73.5835 33.1607 72.5517 33.1607 71.2793V70.5508C33.1609 69.2784 32.125 68.2465 30.8479 68.2465Z" fill="black"/>
<path d="M37.1208 62.7254H36.3895C35.1124 62.7254 34.0767 63.7572 34.0767 65.0297C34.0767 66.3021 35.1124 67.3339 36.3895 67.3339H37.1208C38.3979 67.3339 39.4336 66.3021 39.4336 65.0297C39.4336 63.7575 38.3979 62.7254 37.1208 62.7254Z" fill="black"/>
<path d="M25.3063 62.7254H24.5751C23.2979 62.7254 22.2623 63.757 22.2623 65.0297C22.2623 66.3021 23.2979 67.3339 24.5751 67.3339H25.3063C26.5835 67.3339 27.6192 66.3021 27.6192 65.0297C27.6192 63.7575 26.5835 62.7254 25.3063 62.7254Z" fill="black"/>
<path d="M37.0498 18.2303C36.4108 17.1286 34.9965 16.7504 33.8903 17.387L16.2766 27.5185C15.1704 28.155 14.7912 29.5641 15.4302 30.6662C15.8588 31.4056 16.6358 31.8188 17.4356 31.8188C17.8279 31.8188 18.2255 31.719 18.5897 31.5095L36.2033 21.378C37.3095 20.7415 37.6885 19.3324 37.0498 18.2303Z" fill="black"/>
<path d="M43.9586 13.5655C43.5286 13.1366 42.932 12.8925 42.3236 12.8925C41.7152 12.8925 41.1186 13.1368 40.6883 13.5655C40.2581 13.9965 40.0105 14.5908 40.0105 15.197C40.0105 15.8031 40.2578 16.3975 40.6883 16.8259C41.1186 17.2546 41.7152 17.5014 42.3236 17.5014C42.932 17.5014 43.5286 17.2548 43.9586 16.8259C44.3889 16.3975 44.6367 15.8031 44.6367 15.197C44.6367 14.5908 44.3891 13.9965 43.9586 13.5655Z" fill="black"/>
</g>
<defs>
<clipPath id="clip0_113_720">
<rect width="97" height="118" fill="white"/>
</clipPath>
</defs>
</svg>
