<svg width="124" height="124" viewBox="0 0 124 124" fill="none" xmlns="http://www.w3.org/2000/svg">
<path d="M121.418 31.0017C120.922 31.0017 120.426 30.8622 119.987 30.5677C110.574 24.2903 99.269 22.0429 88.1608 24.2696C82.5757 25.3805 77.094 21.9292 75.7093 16.3906L72.413 3.2107C72.072 1.82606 72.909 0.425919 74.2937 0.0797587C75.6577 -0.271568 77.0836 0.570583 77.4246 1.96039L80.7209 15.1403C81.4391 17.9974 84.2859 19.8006 87.1482 19.2064C99.6152 16.711 112.279 19.2271 122.849 26.2691C124.033 27.0596 124.358 28.6664 123.568 29.8495C123.066 30.5987 122.25 31.0017 121.418 31.0017Z" fill="black"/>
<path d="M2.58687 31.0011C1.75504 31.0011 0.938721 30.5981 0.437561 29.8489C-0.352929 28.6658 -0.0326 27.059 1.15572 26.2685C11.7163 19.2213 24.39 16.7052 36.857 19.2058C39.7658 19.7844 42.5661 17.9968 43.2842 15.1345L46.5805 1.95978C46.9215 0.56998 48.3113 -0.267004 49.7115 0.0791558C51.1013 0.425316 51.9383 1.82545 51.5921 3.21009L48.301 16.39C46.9163 21.9286 41.4346 25.3902 35.8495 24.269C24.7206 22.0422 13.4316 24.2845 4.01802 30.5671C3.57885 30.8616 3.08286 31.0011 2.58687 31.0011Z" fill="black"/>
<path d="M23.2528 124C22.9325 124 22.607 123.943 22.2918 123.814C20.964 123.282 20.3233 121.778 20.8555 120.456C27.2879 104.362 27.8149 86.4442 22.3332 70.0042L17.2699 54.8041C17.0529 54.148 16.5931 53.6158 15.9731 53.311C15.3582 53.0062 14.6607 52.9545 14.0046 53.1715L3.40272 56.7054C2.05424 57.1601 0.586927 56.4316 0.132266 55.0728C-0.317229 53.7191 0.416429 52.257 1.76491 51.8023L12.3668 48.2684C14.3404 47.6174 16.4329 47.7569 18.2825 48.6921C20.1322 49.6169 21.5168 51.2082 22.173 53.1715L27.2363 68.3715C33.1003 85.9689 32.5372 105.147 25.6449 122.378C25.2471 123.385 24.2758 124 23.2528 124Z" fill="black"/>
<path d="M100.752 124C99.7289 124 98.7575 123.385 98.3545 122.378C91.4623 105.152 90.9043 85.974 96.7632 68.3715L101.827 53.1715C102.483 51.2082 103.867 49.6169 105.717 48.6921C107.567 47.7724 109.675 47.6174 111.633 48.2736L122.235 51.8023C123.588 52.2518 124.317 53.7191 123.867 55.0728C123.413 56.4316 121.95 57.1652 120.597 56.7054L109.995 53.1715C109.334 52.9545 108.636 53.0113 108.026 53.311C107.406 53.621 106.947 54.148 106.73 54.8041L101.666 70.0042C96.1846 86.4442 96.7116 104.362 103.144 120.456C103.676 121.778 103.035 123.282 101.708 123.814C101.398 123.943 101.072 124 100.752 124Z" fill="black"/>
<path d="M62.0023 113.667C60.5763 113.667 59.419 112.51 59.419 111.084V33.585C59.419 32.159 60.5763 31.0017 62.0023 31.0017C63.4283 31.0017 64.5856 32.159 64.5856 33.585V111.084C64.5856 112.51 63.4283 113.667 62.0023 113.667Z" fill="black"/>
<path d="M38.7268 63.2205C36.6033 63.2205 34.454 62.74 32.4287 61.7273C31.1525 61.0867 30.6359 59.5367 31.2714 58.2605C31.9172 56.9844 33.462 56.4729 34.7382 57.1032C39.1504 59.3094 44.5599 57.5166 46.7712 53.094C47.417 51.8127 48.9825 51.3115 50.238 51.9367C51.5141 52.5773 52.0308 54.1273 51.3953 55.4034C48.9205 60.353 43.914 63.2205 38.7268 63.2205Z" fill="black"/>
<path d="M85.2779 63.2204C80.0906 63.2204 75.0842 60.353 72.6094 55.4086C71.9739 54.1324 72.4905 52.5825 73.7667 51.9418C75.0273 51.3063 76.5928 51.8178 77.2335 53.0991C79.4448 57.5217 84.8594 59.3197 89.2665 57.1084C90.5426 56.4729 92.0926 56.9844 92.7333 58.2657C93.3688 59.5418 92.8521 61.0918 91.576 61.7325C89.5507 62.7399 87.3962 63.2204 85.2779 63.2204Z" fill="black"/>
</svg>
