<svg width="92" height="120" viewBox="0 0 92 120" fill="none" xmlns="http://www.w3.org/2000/svg">
<path d="M92 13.5577V7.21148C92 3.23508 88.7757 0 84.8125 0H7.18745C3.2243 0 0 3.23508 0 7.21148V13.5577C0 16.5248 1.79587 19.0786 4.35396 20.1841C1.6723 22.7869 0 26.4309 0 30.4615V111.154C0 116.032 3.95498 120 8.81653 120H83.1835C88.045 120 92 116.032 92 111.154V30.4617C92 26.4312 90.3277 22.7873 87.646 20.1844C90.2041 19.0786 92 16.5248 92 13.5577ZM87.4001 111.154C87.4001 113.487 85.5084 115.385 83.1835 115.385H8.81653C6.49157 115.385 4.59993 113.487 4.59993 111.154V98.077H87.4001V111.154ZM87.4001 93.4615H4.59993V53.077H13.8C15.0701 53.077 16.1 52.0439 16.1 50.7694C16.1 49.4948 15.0701 48.4617 13.8 48.4617H4.59993V42.6926H87.4001V93.4615ZM87.4001 38.077H4.59993V30.4617C4.59993 25.1173 8.93333 20.7694 14.26 20.7694H77.74C83.0667 20.7694 87.4001 25.1173 87.4001 30.4617V38.077ZM87.4001 13.5577C87.4001 14.9892 86.2393 16.1538 84.8125 16.1538H7.18745C5.76066 16.1538 4.59993 14.9892 4.59993 13.5577V7.21148C4.59993 5.77992 5.76066 4.61531 7.18745 4.61531H84.8125C86.2393 4.61531 87.4001 5.77992 87.4001 7.21148V13.5577Z" fill="black"/>
<path d="M22.326 49.1377C21.8985 48.7085 21.3049 48.4615 20.7001 48.4615C20.0954 48.4615 19.5018 48.7085 19.0741 49.1377C18.6464 49.5668 18.4002 50.1624 18.4002 50.7692C18.4002 51.3762 18.6462 51.9715 19.0741 52.4006C19.502 52.8298 20.0954 53.0768 20.7001 53.0768C21.3049 53.0768 21.8985 52.8298 22.326 52.4006C22.7537 51.9715 23.0001 51.3759 23.0001 50.7692C22.9999 50.1624 22.7539 49.567 22.326 49.1377Z" fill="black"/>
</svg>
