<svg width="18" height="18" viewBox="0 0 18 18" fill="none" xmlns="http://www.w3.org/2000/svg">
<path d="M17.2294 0.687492C17.0642 0.580259 16.8795 0.506629 16.6858 0.470807C16.4921 0.434985 16.2933 0.437674 16.1006 0.47872C15.908 0.519766 15.7253 0.598364 15.563 0.710026C15.4008 0.821687 15.2621 0.964224 15.1549 1.12949L6.74993 14.085L2.65093 10.295C2.50631 10.1613 2.33677 10.0574 2.15199 9.98915C1.9672 9.92096 1.7708 9.88982 1.57399 9.89753C1.1765 9.9131 0.801482 10.0859 0.531425 10.378C0.261369 10.6701 0.118397 11.0574 0.133962 11.4549C0.149528 11.8524 0.322356 12.2274 0.614425 12.4975L5.99643 17.4735C5.99643 17.4735 6.15093 17.6065 6.22242 17.653C6.38767 17.7603 6.57244 17.834 6.76617 17.8699C6.95991 17.9057 7.15882 17.9031 7.35152 17.862C7.54423 17.821 7.72696 17.7423 7.88926 17.6306C8.05156 17.5189 8.19026 17.3763 8.29743 17.211L17.6714 2.76199C17.7787 2.59677 17.8523 2.41204 17.8881 2.21835C17.9239 2.02467 17.9212 1.82582 17.8802 1.63317C17.8392 1.44053 17.7606 1.25785 17.6489 1.09559C17.5372 0.933329 17.3947 0.794655 17.2294 0.687492Z" fill="#E90043"/>
</svg>
